<?xml version="1.0" encoding="utf-8" standalone="no"?>
<!DOCTYPE svg PUBLIC "-//W3C//DTD SVG 1.1//EN"
  "http://www.w3.org/Graphics/SVG/1.1/DTD/svg11.dtd">
<svg height="345.6pt" version="1.1" viewBox="0 0 460.8 345.6" width="460.8pt" xmlns="http://www.w3.org/2000/svg" xmlns:xlink="http://www.w3.org/1999/xlink">
 <metadata>
  <rdf:RDF xmlns:cc="http://creativecommons.org/ns#" xmlns:dc="http://purl.org/dc/elements/1.1/" xmlns:rdf="http://www.w3.org/1999/02/22-rdf-syntax-ns#">
   <cc:Work>
    <dc:type rdf:resource="http://purl.org/dc/dcmitype/StillImage"/>
    <dc:date>2025-05-13T10:38:58.303831</dc:date>
    <dc:format>image/svg+xml</dc:format>
    <dc:creator>
     <cc:Agent>
      <dc:title>Matplotlib v3.4.3, https://matplotlib.org/</dc:title>
     </cc:Agent>
    </dc:creator>
   </cc:Work>
  </rdf:RDF>
 </metadata>
 <defs>
  <style type="text/css">*{stroke-linecap:butt;stroke-linejoin:round;}</style>
 </defs>
 <g id="figure_1">
  <g id="patch_1">
   <path d="M 0 345.6 
L 460.8 345.6 
L 460.8 0 
L 0 0 
z
" style="fill:#ffffff;"/>
  </g>
  <g id="axes_1">
   <g id="patch_2">
    <path d="M 57.6 307.584 
L 414.72 307.584 
L 414.72 41.472 
L 57.6 41.472 
z
" style="fill:#ffffff;"/>
   </g>
   <g id="matplotlib.axis_1">
    <g id="xtick_1">
     <g id="line2d_1">
      <path clip-path="url(#p3dc0666002)" d="M 92.101261 307.584 
L 92.101261 41.472 
" style="fill:none;stroke:#b0b0b0;stroke-linecap:square;stroke-width:0.8;"/>
     </g>
     <g id="line2d_2">
      <defs>
       <path d="M 0 0 
L 0 3.5 
" id="m839b5d321e" style="stroke:#000000;stroke-width:0.8;"/>
      </defs>
      <g>
       <use style="stroke:#000000;stroke-width:0.8;" x="92.101261" xlink:href="#m839b5d321e" y="307.584"/>
      </g>
     </g>
     <g id="text_1">
      <!-- −15 -->
      <g transform="translate(75.217511 326.7415)scale(0.16 -0.16)">
       <defs>
        <path d="M 678 2272 
L 4684 2272 
L 4684 1741 
L 678 1741 
L 678 2272 
z
" id="DejaVuSans-2212" transform="scale(0.015625)"/>
        <path d="M 794 531 
L 1825 531 
L 1825 4091 
L 703 3866 
L 703 4441 
L 1819 4666 
L 2450 4666 
L 2450 531 
L 3481 531 
L 3481 0 
L 794 0 
L 794 531 
z
" id="DejaVuSans-31" transform="scale(0.015625)"/>
        <path d="M 691 4666 
L 3169 4666 
L 3169 4134 
L 1269 4134 
L 1269 2991 
Q 1406 3038 1543 3061 
Q 1681 3084 1819 3084 
Q 2600 3084 3056 2656 
Q 3513 2228 3513 1497 
Q 3513 744 3044 326 
Q 2575 -91 1722 -91 
Q 1428 -91 1123 -41 
Q 819 9 494 109 
L 494 744 
Q 775 591 1075 516 
Q 1375 441 1709 441 
Q 2250 441 2565 725 
Q 2881 1009 2881 1497 
Q 2881 1984 2565 2268 
Q 2250 2553 1709 2553 
Q 1456 2553 1204 2497 
Q 953 2441 691 2322 
L 691 4666 
z
" id="DejaVuSans-35" transform="scale(0.015625)"/>
       </defs>
       <use xlink:href="#DejaVuSans-2212"/>
       <use x="83.789062" xlink:href="#DejaVuSans-31"/>
       <use x="147.412109" xlink:href="#DejaVuSans-35"/>
      </g>
     </g>
    </g>
    <g id="xtick_2">
     <g id="line2d_3">
      <path clip-path="url(#p3dc0666002)" d="M 158.234095 307.584 
L 158.234095 41.472 
" style="fill:none;stroke:#b0b0b0;stroke-linecap:square;stroke-width:0.8;"/>
     </g>
     <g id="line2d_4">
      <g>
       <use style="stroke:#000000;stroke-width:0.8;" x="158.234095" xlink:href="#m839b5d321e" y="307.584"/>
      </g>
     </g>
     <g id="text_2">
      <!-- −10 -->
      <g transform="translate(141.350345 326.7415)scale(0.16 -0.16)">
       <defs>
        <path d="M 2034 4250 
Q 1547 4250 1301 3770 
Q 1056 3291 1056 2328 
Q 1056 1369 1301 889 
Q 1547 409 2034 409 
Q 2525 409 2770 889 
Q 3016 1369 3016 2328 
Q 3016 3291 2770 3770 
Q 2525 4250 2034 4250 
z
M 2034 4750 
Q 2819 4750 3233 4129 
Q 3647 3509 3647 2328 
Q 3647 1150 3233 529 
Q 2819 -91 2034 -91 
Q 1250 -91 836 529 
Q 422 1150 422 2328 
Q 422 3509 836 4129 
Q 1250 4750 2034 4750 
z
" id="DejaVuSans-30" transform="scale(0.015625)"/>
       </defs>
       <use xlink:href="#DejaVuSans-2212"/>
       <use x="83.789062" xlink:href="#DejaVuSans-31"/>
       <use x="147.412109" xlink:href="#DejaVuSans-30"/>
      </g>
     </g>
    </g>
    <g id="xtick_3">
     <g id="line2d_5">
      <path clip-path="url(#p3dc0666002)" d="M 224.366929 307.584 
L 224.366929 41.472 
" style="fill:none;stroke:#b0b0b0;stroke-linecap:square;stroke-width:0.8;"/>
     </g>
     <g id="line2d_6">
      <g>
       <use style="stroke:#000000;stroke-width:0.8;" x="224.366929" xlink:href="#m839b5d321e" y="307.584"/>
      </g>
     </g>
     <g id="text_3">
      <!-- −5 -->
      <g transform="translate(212.573179 326.7415)scale(0.16 -0.16)">
       <use xlink:href="#DejaVuSans-2212"/>
       <use x="83.789062" xlink:href="#DejaVuSans-35"/>
      </g>
     </g>
    </g>
    <g id="xtick_4">
     <g id="line2d_7">
      <path clip-path="url(#p3dc0666002)" d="M 290.499762 307.584 
L 290.499762 41.472 
" style="fill:none;stroke:#b0b0b0;stroke-linecap:square;stroke-width:0.8;"/>
     </g>
     <g id="line2d_8">
      <g>
       <use style="stroke:#000000;stroke-width:0.8;" x="290.499762" xlink:href="#m839b5d321e" y="307.584"/>
      </g>
     </g>
     <g id="text_4">
      <!-- 0 -->
      <g transform="translate(285.409762 326.7415)scale(0.16 -0.16)">
       <use xlink:href="#DejaVuSans-30"/>
      </g>
     </g>
    </g>
    <g id="xtick_5">
     <g id="line2d_9">
      <path clip-path="url(#p3dc0666002)" d="M 356.632596 307.584 
L 356.632596 41.472 
" style="fill:none;stroke:#b0b0b0;stroke-linecap:square;stroke-width:0.8;"/>
     </g>
     <g id="line2d_10">
      <g>
       <use style="stroke:#000000;stroke-width:0.8;" x="356.632596" xlink:href="#m839b5d321e" y="307.584"/>
      </g>
     </g>
     <g id="text_5">
      <!-- 5 -->
      <g transform="translate(351.542596 326.7415)scale(0.16 -0.16)">
       <use xlink:href="#DejaVuSans-35"/>
      </g>
     </g>
    </g>
    <g id="text_6">
     <!-- X (m) -->
     <g transform="translate(216.859688 344.706812)scale(0.14 -0.14)">
      <defs>
       <path d="M 403 4666 
L 1081 4666 
L 2241 2931 
L 3406 4666 
L 4084 4666 
L 2584 2425 
L 4184 0 
L 3506 0 
L 2194 1984 
L 872 0 
L 191 0 
L 1856 2491 
L 403 4666 
z
" id="DejaVuSans-58" transform="scale(0.015625)"/>
       <path id="DejaVuSans-20" transform="scale(0.015625)"/>
       <path d="M 1984 4856 
Q 1566 4138 1362 3434 
Q 1159 2731 1159 2009 
Q 1159 1288 1364 580 
Q 1569 -128 1984 -844 
L 1484 -844 
Q 1016 -109 783 600 
Q 550 1309 550 2009 
Q 550 2706 781 3412 
Q 1013 4119 1484 4856 
L 1984 4856 
z
" id="DejaVuSans-28" transform="scale(0.015625)"/>
       <path d="M 3328 2828 
Q 3544 3216 3844 3400 
Q 4144 3584 4550 3584 
Q 5097 3584 5394 3201 
Q 5691 2819 5691 2113 
L 5691 0 
L 5113 0 
L 5113 2094 
Q 5113 2597 4934 2840 
Q 4756 3084 4391 3084 
Q 3944 3084 3684 2787 
Q 3425 2491 3425 1978 
L 3425 0 
L 2847 0 
L 2847 2094 
Q 2847 2600 2669 2842 
Q 2491 3084 2119 3084 
Q 1678 3084 1418 2786 
Q 1159 2488 1159 1978 
L 1159 0 
L 581 0 
L 581 3500 
L 1159 3500 
L 1159 2956 
Q 1356 3278 1631 3431 
Q 1906 3584 2284 3584 
Q 2666 3584 2933 3390 
Q 3200 3197 3328 2828 
z
" id="DejaVuSans-6d" transform="scale(0.015625)"/>
       <path d="M 513 4856 
L 1013 4856 
Q 1481 4119 1714 3412 
Q 1947 2706 1947 2009 
Q 1947 1309 1714 600 
Q 1481 -109 1013 -844 
L 513 -844 
Q 928 -128 1133 580 
Q 1338 1288 1338 2009 
Q 1338 2731 1133 3434 
Q 928 4138 513 4856 
z
" id="DejaVuSans-29" transform="scale(0.015625)"/>
      </defs>
      <use xlink:href="#DejaVuSans-58"/>
      <use x="68.505859" xlink:href="#DejaVuSans-20"/>
      <use x="100.292969" xlink:href="#DejaVuSans-28"/>
      <use x="139.306641" xlink:href="#DejaVuSans-6d"/>
      <use x="236.71875" xlink:href="#DejaVuSans-29"/>
     </g>
    </g>
   </g>
   <g id="matplotlib.axis_2">
    <g id="ytick_1">
     <g id="line2d_11">
      <path clip-path="url(#p3dc0666002)" d="M 57.6 272.305064 
L 414.72 272.305064 
" style="fill:none;stroke:#b0b0b0;stroke-linecap:square;stroke-width:0.8;"/>
     </g>
     <g id="line2d_12">
      <defs>
       <path d="M 0 0 
L -3.5 0 
" id="m4c832efd6a" style="stroke:#000000;stroke-width:0.8;"/>
      </defs>
      <g>
       <use style="stroke:#000000;stroke-width:0.8;" x="57.6" xlink:href="#m4c832efd6a" y="272.305064"/>
      </g>
     </g>
     <g id="text_7">
      <!-- −5 -->
      <g transform="translate(27.0125 278.383814)scale(0.16 -0.16)">
       <use xlink:href="#DejaVuSans-2212"/>
       <use x="83.789062" xlink:href="#DejaVuSans-35"/>
      </g>
     </g>
    </g>
    <g id="ytick_2">
     <g id="line2d_13">
      <path clip-path="url(#p3dc0666002)" d="M 57.6 206.17223 
L 414.72 206.17223 
" style="fill:none;stroke:#b0b0b0;stroke-linecap:square;stroke-width:0.8;"/>
     </g>
     <g id="line2d_14">
      <g>
       <use style="stroke:#000000;stroke-width:0.8;" x="57.6" xlink:href="#m4c832efd6a" y="206.17223"/>
      </g>
     </g>
     <g id="text_8">
      <!-- 0 -->
      <g transform="translate(40.42 212.25098)scale(0.16 -0.16)">
       <use xlink:href="#DejaVuSans-30"/>
      </g>
     </g>
    </g>
    <g id="ytick_3">
     <g id="line2d_15">
      <path clip-path="url(#p3dc0666002)" d="M 57.6 140.039397 
L 414.72 140.039397 
" style="fill:none;stroke:#b0b0b0;stroke-linecap:square;stroke-width:0.8;"/>
     </g>
     <g id="line2d_16">
      <g>
       <use style="stroke:#000000;stroke-width:0.8;" x="57.6" xlink:href="#m4c832efd6a" y="140.039397"/>
      </g>
     </g>
     <g id="text_9">
      <!-- 5 -->
      <g transform="translate(40.42 146.118147)scale(0.16 -0.16)">
       <use xlink:href="#DejaVuSans-35"/>
      </g>
     </g>
    </g>
    <g id="ytick_4">
     <g id="line2d_17">
      <path clip-path="url(#p3dc0666002)" d="M 57.6 73.906563 
L 414.72 73.906563 
" style="fill:none;stroke:#b0b0b0;stroke-linecap:square;stroke-width:0.8;"/>
     </g>
     <g id="line2d_18">
      <g>
       <use style="stroke:#000000;stroke-width:0.8;" x="57.6" xlink:href="#m4c832efd6a" y="73.906563"/>
      </g>
     </g>
     <g id="text_10">
      <!-- 10 -->
      <g transform="translate(30.24 79.985313)scale(0.16 -0.16)">
       <use xlink:href="#DejaVuSans-31"/>
       <use x="63.623047" xlink:href="#DejaVuSans-30"/>
      </g>
     </g>
    </g>
    <g id="text_11">
     <!-- Y (m) -->
     <g transform="translate(20.100937 193.308781)rotate(-90)scale(0.14 -0.14)">
      <defs>
       <path d="M -13 4666 
L 666 4666 
L 1959 2747 
L 3244 4666 
L 3922 4666 
L 2272 2222 
L 2272 0 
L 1638 0 
L 1638 2222 
L -13 4666 
z
" id="DejaVuSans-59" transform="scale(0.015625)"/>
      </defs>
      <use xlink:href="#DejaVuSans-59"/>
      <use x="61.083984" xlink:href="#DejaVuSans-20"/>
      <use x="92.871094" xlink:href="#DejaVuSans-28"/>
      <use x="131.884766" xlink:href="#DejaVuSans-6d"/>
      <use x="229.296875" xlink:href="#DejaVuSans-29"/>
     </g>
    </g>
   </g>
   <g id="line2d_19">
    <path clip-path="url(#p3dc0666002)" d="M 396.312693 219.398546 
L 396.445223 219.988437 
L 397.214348 220.855703 
L 397.395949 221.455925 
L 397.344497 221.450105 
L 397.398197 221.388734 
L 397.708757 221.137165 
L 398.272209 220.40309 
L 398.487273 219.53675 
L 398.32948 217.053806 
L 397.636937 215.594466 
L 394.781189 212.794283 
L 391.5465 210.228858 
L 388.530842 207.511261 
L 385.581318 204.077618 
L 382.995789 200.351298 
L 380.944084 196.954861 
L 378.868174 193.300546 
L 377.112612 189.660581 
L 375.550687 185.993251 
L 373.689709 181.871588 
L 371.580071 178.006256 
L 369.026947 174.411143 
L 366.457025 171.33266 
L 363.020763 168.373083 
L 359.80803 165.665737 
L 356.697671 163.161816 
L 353.278339 160.95417 
L 349.569609 159.057877 
L 345.580212 157.432729 
L 341.303666 156.059017 
L 337.362414 155.055253 
L 333.484385 153.860365 
L 329.889668 152.120543 
L 326.499303 150.013815 
L 323.059734 147.625758 
L 319.611303 145.226327 
L 316.187474 142.84409 
L 312.729653 140.530367 
L 309.423144 138.137945 
L 305.856997 135.776077 
L 302.271142 133.4195 
L 298.712058 130.994277 
L 295.305225 128.88821 
L 292.434161 127.600075 
L 288.684376 127.699407 
L 284.628926 128.493133 
L 280.376452 129.702702 
L 276.454736 130.831458 
L 272.374737 132.01378 
L 268.208368 133.066615 
L 264.041338 134.14921 
L 259.787013 135.2777 
L 255.83928 136.252763 
L 251.906757 137.256791 
L 247.727955 138.256455 
L 243.540292 139.29117 
L 239.15833 140.373632 
L 235.095526 141.377396 
L 230.923073 142.408407 
L 226.529604 143.494044 
L 222.484788 144.493311 
L 218.399631 145.502895 
L 213.995316 146.591176 
L 209.946003 147.591766 
L 205.920762 148.586536 
L 201.789576 149.607627 
L 197.734178 150.609936 
L 193.88075 151.579576 
L 189.733164 152.662832 
L 185.350012 153.807723 
L 181.312867 154.86241 
L 177.290139 155.912864 
L 173.186067 156.646542 
L 169.133712 156.485177 
L 164.895523 155.930191 
L 164.050081 155.747399 
L 163.797453 155.572147 
L 161.070797 152.99429 
L 157.747357 151.928096 
L 153.594215 151.79345 
L 149.6236 152.189056 
L 145.25751 152.661377 
L 140.810739 152.995745 
L 136.516072 153.109625 
L 132.454194 153.221125 
L 127.933353 153.240833 
L 123.87412 153.245065 
L 119.549033 153.252472 
L 115.381341 153.984695 
L 111.595898 155.66923 
L 107.790615 157.610229 
L 104.181085 159.26064 
L 100.186661 160.785928 
L 96.317891 162.117314 
L 92.339339 163.48256 
L 88.343594 164.958248 
L 84.70232 166.878349 
L 81.189344 168.681659 
L 78.585033 169.073959 
L 76.245253 168.718693 
L 74.229524 167.648267 
L 73.875052 167.349479 
L 73.848599 167.292605 
L 73.841986 167.202268 
L 73.832727 167.157562 
L 73.852567 167.122776 
L 73.885634 167.098836 
L 74.106517 166.993949 
L 74.495378 166.994611 
L 78.082423 167.314297 
L 82.205144 167.200151 
L 83.080743 166.876365 
L 83.960309 166.225221 
L 84.105802 165.728828 
L 82.750079 164.875979 
L 84.251294 162.412531 
L 84.887492 162.214 
L 82.793726 161.52397 
L 80.742286 161.256794 
" style="fill:none;stroke:#ff0000;stroke-linecap:square;stroke-width:1.5;"/>
   </g>
   <g id="line2d_20">
    <defs>
     <path d="M 0 -7.5 
L -1.683855 -2.317627 
L -7.132924 -2.317627 
L -2.724534 0.885255 
L -4.408389 6.067627 
L -0 2.864745 
L 4.408389 6.067627 
L 2.724534 0.885255 
L 7.132924 -2.317627 
L 1.683855 -2.317627 
z
" id="mf9430ffa28" style="stroke:#000000;stroke-linejoin:bevel;"/>
    </defs>
    <g clip-path="url(#p3dc0666002)">
     <use style="stroke:#000000;stroke-linejoin:bevel;" x="396.312693" xlink:href="#mf9430ffa28" y="219.398546"/>
    </g>
   </g>
   <g id="line2d_21">
    <defs>
     <path d="M 0 8.485281 
L 5.091169 0 
L 0 -8.485281 
L -5.091169 0 
z
" id="ma92fd8e4ef" style="stroke:#0000ff;stroke-linejoin:miter;"/>
    </defs>
    <g clip-path="url(#p3dc0666002)">
     <use style="fill:#0000ff;stroke:#0000ff;stroke-linejoin:miter;" x="80.742286" xlink:href="#ma92fd8e4ef" y="161.256794"/>
    </g>
   </g>
   <g id="line2d_22">
    <path clip-path="url(#p3dc0666002)" d="M 397.214348 220.855703 
L 397.398197 221.388734 
" style="fill:none;stroke:#008000;stroke-linecap:square;stroke-width:1.5;"/>
    <defs>
     <path d="M 0 1.25 
C 0.331504 1.25 0.649475 1.118292 0.883883 0.883883 
C 1.118292 0.649475 1.25 0.331504 1.25 0 
C 1.25 -0.331504 1.118292 -0.649475 0.883883 -0.883883 
C 0.649475 -1.118292 0.331504 -1.25 0 -1.25 
C -0.331504 -1.25 -0.649475 -1.118292 -0.883883 -0.883883 
C -1.118292 -0.649475 -1.25 -0.331504 -1.25 0 
C -1.25 0.331504 -1.118292 0.649475 -0.883883 0.883883 
C -0.649475 1.118292 -0.331504 1.25 0 1.25 
z
" id="m38d1b2cd9b" style="stroke:#0000ff;"/>
    </defs>
    <g clip-path="url(#p3dc0666002)">
     <use style="fill:#008000;stroke:#0000ff;" x="397.214348" xlink:href="#m38d1b2cd9b" y="220.855703"/>
     <use style="fill:#008000;stroke:#0000ff;" x="397.398197" xlink:href="#m38d1b2cd9b" y="221.388734"/>
    </g>
   </g>
   <g id="line2d_23">
    <path clip-path="url(#p3dc0666002)" d="M 396.445223 219.988437 
L 397.708757 221.137165 
" style="fill:none;stroke:#008000;stroke-linecap:square;stroke-width:1.5;"/>
    <g clip-path="url(#p3dc0666002)">
     <use style="fill:#008000;stroke:#0000ff;" x="396.445223" xlink:href="#m38d1b2cd9b" y="219.988437"/>
     <use style="fill:#008000;stroke:#0000ff;" x="397.708757" xlink:href="#m38d1b2cd9b" y="221.137165"/>
    </g>
   </g>
   <g id="line2d_24">
    <path clip-path="url(#p3dc0666002)" d="M 396.312693 219.398546 
L 398.272209 220.40309 
" style="fill:none;stroke:#008000;stroke-linecap:square;stroke-width:1.5;"/>
    <g clip-path="url(#p3dc0666002)">
     <use style="fill:#008000;stroke:#0000ff;" x="396.312693" xlink:href="#m38d1b2cd9b" y="219.398546"/>
     <use style="fill:#008000;stroke:#0000ff;" x="398.272209" xlink:href="#m38d1b2cd9b" y="220.40309"/>
    </g>
   </g>
   <g id="line2d_25">
    <path clip-path="url(#p3dc0666002)" d="M 74.229524 167.648267 
L 73.841986 167.202268 
" style="fill:none;stroke:#008000;stroke-linecap:square;stroke-width:1.5;"/>
    <g clip-path="url(#p3dc0666002)">
     <use style="fill:#008000;stroke:#0000ff;" x="74.229524" xlink:href="#m38d1b2cd9b" y="167.648267"/>
     <use style="fill:#008000;stroke:#0000ff;" x="73.841986" xlink:href="#m38d1b2cd9b" y="167.202268"/>
    </g>
   </g>
   <g id="line2d_26">
    <path clip-path="url(#p3dc0666002)" d="M 73.841986 167.202268 
L 73.852567 167.122776 
" style="fill:none;stroke:#008000;stroke-linecap:square;stroke-width:1.5;"/>
    <g clip-path="url(#p3dc0666002)">
     <use style="fill:#008000;stroke:#0000ff;" x="73.841986" xlink:href="#m38d1b2cd9b" y="167.202268"/>
     <use style="fill:#008000;stroke:#0000ff;" x="73.852567" xlink:href="#m38d1b2cd9b" y="167.122776"/>
    </g>
   </g>
   <g id="line2d_27">
    <path clip-path="url(#p3dc0666002)" d="M 73.832727 167.157562 
L 73.885634 167.098836 
" style="fill:none;stroke:#008000;stroke-linecap:square;stroke-width:1.5;"/>
    <g clip-path="url(#p3dc0666002)">
     <use style="fill:#008000;stroke:#0000ff;" x="73.832727" xlink:href="#m38d1b2cd9b" y="167.157562"/>
     <use style="fill:#008000;stroke:#0000ff;" x="73.885634" xlink:href="#m38d1b2cd9b" y="167.098836"/>
    </g>
   </g>
   <g id="line2d_28">
    <path clip-path="url(#p3dc0666002)" d="M 78.585033 169.073959 
L 78.082423 167.314297 
" style="fill:none;stroke:#008000;stroke-linecap:square;stroke-width:1.5;"/>
    <g clip-path="url(#p3dc0666002)">
     <use style="fill:#008000;stroke:#0000ff;" x="78.585033" xlink:href="#m38d1b2cd9b" y="169.073959"/>
     <use style="fill:#008000;stroke:#0000ff;" x="78.082423" xlink:href="#m38d1b2cd9b" y="167.314297"/>
    </g>
   </g>
   <g id="line2d_29">
    <path clip-path="url(#p3dc0666002)" d="M 84.70232 166.878349 
L 82.205144 167.200151 
" style="fill:none;stroke:#008000;stroke-linecap:square;stroke-width:1.5;"/>
    <g clip-path="url(#p3dc0666002)">
     <use style="fill:#008000;stroke:#0000ff;" x="84.70232" xlink:href="#m38d1b2cd9b" y="166.878349"/>
     <use style="fill:#008000;stroke:#0000ff;" x="82.205144" xlink:href="#m38d1b2cd9b" y="167.200151"/>
    </g>
   </g>
   <g id="line2d_30">
    <path clip-path="url(#p3dc0666002)" d="M 84.70232 166.878349 
L 83.960309 166.225221 
" style="fill:none;stroke:#008000;stroke-linecap:square;stroke-width:1.5;"/>
    <g clip-path="url(#p3dc0666002)">
     <use style="fill:#008000;stroke:#0000ff;" x="84.70232" xlink:href="#m38d1b2cd9b" y="166.878349"/>
     <use style="fill:#008000;stroke:#0000ff;" x="83.960309" xlink:href="#m38d1b2cd9b" y="166.225221"/>
    </g>
   </g>
   <g id="line2d_31">
    <path clip-path="url(#p3dc0666002)" d="M 100.186661 160.785928 
L 84.105802 165.728828 
" style="fill:none;stroke:#008000;stroke-linecap:square;stroke-width:1.5;"/>
    <g clip-path="url(#p3dc0666002)">
     <use style="fill:#008000;stroke:#0000ff;" x="100.186661" xlink:href="#m38d1b2cd9b" y="160.785928"/>
     <use style="fill:#008000;stroke:#0000ff;" x="84.105802" xlink:href="#m38d1b2cd9b" y="165.728828"/>
    </g>
   </g>
   <g id="line2d_32">
    <path clip-path="url(#p3dc0666002)" d="M 76.245253 168.718693 
L 82.750079 164.875979 
" style="fill:none;stroke:#008000;stroke-linecap:square;stroke-width:1.5;"/>
    <g clip-path="url(#p3dc0666002)">
     <use style="fill:#008000;stroke:#0000ff;" x="76.245253" xlink:href="#m38d1b2cd9b" y="168.718693"/>
     <use style="fill:#008000;stroke:#0000ff;" x="82.750079" xlink:href="#m38d1b2cd9b" y="164.875979"/>
    </g>
   </g>
   <g id="line2d_33">
    <path clip-path="url(#p3dc0666002)" d="M 84.105802 165.728828 
L 84.251294 162.412531 
" style="fill:none;stroke:#008000;stroke-linecap:square;stroke-width:1.5;"/>
    <g clip-path="url(#p3dc0666002)">
     <use style="fill:#008000;stroke:#0000ff;" x="84.105802" xlink:href="#m38d1b2cd9b" y="165.728828"/>
     <use style="fill:#008000;stroke:#0000ff;" x="84.251294" xlink:href="#m38d1b2cd9b" y="162.412531"/>
    </g>
   </g>
   <g id="line2d_34">
    <path clip-path="url(#p3dc0666002)" d="M 107.790615 157.610229 
L 82.793726 161.52397 
" style="fill:none;stroke:#008000;stroke-linecap:square;stroke-width:1.5;"/>
    <g clip-path="url(#p3dc0666002)">
     <use style="fill:#008000;stroke:#0000ff;" x="107.790615" xlink:href="#m38d1b2cd9b" y="157.610229"/>
     <use style="fill:#008000;stroke:#0000ff;" x="82.793726" xlink:href="#m38d1b2cd9b" y="161.52397"/>
    </g>
   </g>
   <g id="line2d_35">
    <path clip-path="url(#p3dc0666002)" d="M 83.960309 166.225221 
L 80.742286 161.256794 
" style="fill:none;stroke:#008000;stroke-linecap:square;stroke-width:1.5;"/>
    <g clip-path="url(#p3dc0666002)">
     <use style="fill:#008000;stroke:#0000ff;" x="83.960309" xlink:href="#m38d1b2cd9b" y="166.225221"/>
     <use style="fill:#008000;stroke:#0000ff;" x="80.742286" xlink:href="#m38d1b2cd9b" y="161.256794"/>
    </g>
   </g>
   <g id="patch_3">
    <path d="M 57.6 307.584 
L 57.6 41.472 
" style="fill:none;stroke:#000000;stroke-linecap:square;stroke-linejoin:miter;stroke-width:0.8;"/>
   </g>
   <g id="patch_4">
    <path d="M 414.72 307.584 
L 414.72 41.472 
" style="fill:none;stroke:#000000;stroke-linecap:square;stroke-linejoin:miter;stroke-width:0.8;"/>
   </g>
   <g id="patch_5">
    <path d="M 57.6 307.584 
L 414.72 307.584 
" style="fill:none;stroke:#000000;stroke-linecap:square;stroke-linejoin:miter;stroke-width:0.8;"/>
   </g>
   <g id="patch_6">
    <path d="M 57.6 41.472 
L 414.72 41.472 
" style="fill:none;stroke:#000000;stroke-linecap:square;stroke-linejoin:miter;stroke-width:0.8;"/>
   </g>
   <g id="legend_1">
    <g id="patch_7">
     <path d="M 269.642812 114.320125 
L 404.92 114.320125 
Q 407.72 114.320125 407.72 111.520125 
L 407.72 51.272 
Q 407.72 48.472 404.92 48.472 
L 269.642812 48.472 
Q 266.842812 48.472 266.842812 51.272 
L 266.842812 111.520125 
Q 266.842812 114.320125 269.642812 114.320125 
z
" style="fill:#ffffff;opacity:0.8;stroke:#cccccc;stroke-linejoin:miter;"/>
    </g>
    <g id="line2d_36"/>
    <g id="line2d_37">
     <g>
      <use style="stroke:#000000;stroke-linejoin:bevel;" x="286.442813" xlink:href="#mf9430ffa28" y="59.809812"/>
     </g>
    </g>
    <g id="text_12">
     <!-- Start -->
     <g transform="translate(311.642812 64.709812)scale(0.14 -0.14)">
      <defs>
       <path d="M 3425 4513 
L 3425 3897 
Q 3066 4069 2747 4153 
Q 2428 4238 2131 4238 
Q 1616 4238 1336 4038 
Q 1056 3838 1056 3469 
Q 1056 3159 1242 3001 
Q 1428 2844 1947 2747 
L 2328 2669 
Q 3034 2534 3370 2195 
Q 3706 1856 3706 1288 
Q 3706 609 3251 259 
Q 2797 -91 1919 -91 
Q 1588 -91 1214 -16 
Q 841 59 441 206 
L 441 856 
Q 825 641 1194 531 
Q 1563 422 1919 422 
Q 2459 422 2753 634 
Q 3047 847 3047 1241 
Q 3047 1584 2836 1778 
Q 2625 1972 2144 2069 
L 1759 2144 
Q 1053 2284 737 2584 
Q 422 2884 422 3419 
Q 422 4038 858 4394 
Q 1294 4750 2059 4750 
Q 2388 4750 2728 4690 
Q 3069 4631 3425 4513 
z
" id="DejaVuSans-53" transform="scale(0.015625)"/>
       <path d="M 1172 4494 
L 1172 3500 
L 2356 3500 
L 2356 3053 
L 1172 3053 
L 1172 1153 
Q 1172 725 1289 603 
Q 1406 481 1766 481 
L 2356 481 
L 2356 0 
L 1766 0 
Q 1100 0 847 248 
Q 594 497 594 1153 
L 594 3053 
L 172 3053 
L 172 3500 
L 594 3500 
L 594 4494 
L 1172 4494 
z
" id="DejaVuSans-74" transform="scale(0.015625)"/>
       <path d="M 2194 1759 
Q 1497 1759 1228 1600 
Q 959 1441 959 1056 
Q 959 750 1161 570 
Q 1363 391 1709 391 
Q 2188 391 2477 730 
Q 2766 1069 2766 1631 
L 2766 1759 
L 2194 1759 
z
M 3341 1997 
L 3341 0 
L 2766 0 
L 2766 531 
Q 2569 213 2275 61 
Q 1981 -91 1556 -91 
Q 1019 -91 701 211 
Q 384 513 384 1019 
Q 384 1609 779 1909 
Q 1175 2209 1959 2209 
L 2766 2209 
L 2766 2266 
Q 2766 2663 2505 2880 
Q 2244 3097 1772 3097 
Q 1472 3097 1187 3025 
Q 903 2953 641 2809 
L 641 3341 
Q 956 3463 1253 3523 
Q 1550 3584 1831 3584 
Q 2591 3584 2966 3190 
Q 3341 2797 3341 1997 
z
" id="DejaVuSans-61" transform="scale(0.015625)"/>
       <path d="M 2631 2963 
Q 2534 3019 2420 3045 
Q 2306 3072 2169 3072 
Q 1681 3072 1420 2755 
Q 1159 2438 1159 1844 
L 1159 0 
L 581 0 
L 581 3500 
L 1159 3500 
L 1159 2956 
Q 1341 3275 1631 3429 
Q 1922 3584 2338 3584 
Q 2397 3584 2469 3576 
Q 2541 3569 2628 3553 
L 2631 2963 
z
" id="DejaVuSans-72" transform="scale(0.015625)"/>
      </defs>
      <use xlink:href="#DejaVuSans-53"/>
      <use x="63.476562" xlink:href="#DejaVuSans-74"/>
      <use x="102.685547" xlink:href="#DejaVuSans-61"/>
      <use x="163.964844" xlink:href="#DejaVuSans-72"/>
      <use x="205.078125" xlink:href="#DejaVuSans-74"/>
     </g>
    </g>
    <g id="line2d_38"/>
    <g id="line2d_39">
     <g>
      <use style="fill:#0000ff;stroke:#0000ff;stroke-linejoin:miter;" x="286.442813" xlink:href="#ma92fd8e4ef" y="80.359187"/>
     </g>
    </g>
    <g id="text_13">
     <!-- End -->
     <g transform="translate(311.642812 85.259187)scale(0.14 -0.14)">
      <defs>
       <path d="M 628 4666 
L 3578 4666 
L 3578 4134 
L 1259 4134 
L 1259 2753 
L 3481 2753 
L 3481 2222 
L 1259 2222 
L 1259 531 
L 3634 531 
L 3634 0 
L 628 0 
L 628 4666 
z
" id="DejaVuSans-45" transform="scale(0.015625)"/>
       <path d="M 3513 2113 
L 3513 0 
L 2938 0 
L 2938 2094 
Q 2938 2591 2744 2837 
Q 2550 3084 2163 3084 
Q 1697 3084 1428 2787 
Q 1159 2491 1159 1978 
L 1159 0 
L 581 0 
L 581 3500 
L 1159 3500 
L 1159 2956 
Q 1366 3272 1645 3428 
Q 1925 3584 2291 3584 
Q 2894 3584 3203 3211 
Q 3513 2838 3513 2113 
z
" id="DejaVuSans-6e" transform="scale(0.015625)"/>
       <path d="M 2906 2969 
L 2906 4863 
L 3481 4863 
L 3481 0 
L 2906 0 
L 2906 525 
Q 2725 213 2448 61 
Q 2172 -91 1784 -91 
Q 1150 -91 751 415 
Q 353 922 353 1747 
Q 353 2572 751 3078 
Q 1150 3584 1784 3584 
Q 2172 3584 2448 3432 
Q 2725 3281 2906 2969 
z
M 947 1747 
Q 947 1113 1208 752 
Q 1469 391 1925 391 
Q 2381 391 2643 752 
Q 2906 1113 2906 1747 
Q 2906 2381 2643 2742 
Q 2381 3103 1925 3103 
Q 1469 3103 1208 2742 
Q 947 2381 947 1747 
z
" id="DejaVuSans-64" transform="scale(0.015625)"/>
      </defs>
      <use xlink:href="#DejaVuSans-45"/>
      <use x="63.183594" xlink:href="#DejaVuSans-6e"/>
      <use x="126.5625" xlink:href="#DejaVuSans-64"/>
     </g>
    </g>
    <g id="line2d_40">
     <path d="M 272.442813 100.908562 
L 300.442813 100.908562 
" style="fill:none;stroke:#008000;stroke-linecap:square;stroke-width:1.5;"/>
    </g>
    <g id="line2d_41">
     <g>
      <use style="fill:#008000;stroke:#0000ff;" x="286.442813" xlink:href="#m38d1b2cd9b" y="100.908562"/>
     </g>
    </g>
    <g id="text_14">
     <!-- Loop Closure -->
     <g transform="translate(311.642812 105.808562)scale(0.14 -0.14)">
      <defs>
       <path d="M 628 4666 
L 1259 4666 
L 1259 531 
L 3531 531 
L 3531 0 
L 628 0 
L 628 4666 
z
" id="DejaVuSans-4c" transform="scale(0.015625)"/>
       <path d="M 1959 3097 
Q 1497 3097 1228 2736 
Q 959 2375 959 1747 
Q 959 1119 1226 758 
Q 1494 397 1959 397 
Q 2419 397 2687 759 
Q 2956 1122 2956 1747 
Q 2956 2369 2687 2733 
Q 2419 3097 1959 3097 
z
M 1959 3584 
Q 2709 3584 3137 3096 
Q 3566 2609 3566 1747 
Q 3566 888 3137 398 
Q 2709 -91 1959 -91 
Q 1206 -91 779 398 
Q 353 888 353 1747 
Q 353 2609 779 3096 
Q 1206 3584 1959 3584 
z
" id="DejaVuSans-6f" transform="scale(0.015625)"/>
       <path d="M 1159 525 
L 1159 -1331 
L 581 -1331 
L 581 3500 
L 1159 3500 
L 1159 2969 
Q 1341 3281 1617 3432 
Q 1894 3584 2278 3584 
Q 2916 3584 3314 3078 
Q 3713 2572 3713 1747 
Q 3713 922 3314 415 
Q 2916 -91 2278 -91 
Q 1894 -91 1617 61 
Q 1341 213 1159 525 
z
M 3116 1747 
Q 3116 2381 2855 2742 
Q 2594 3103 2138 3103 
Q 1681 3103 1420 2742 
Q 1159 2381 1159 1747 
Q 1159 1113 1420 752 
Q 1681 391 2138 391 
Q 2594 391 2855 752 
Q 3116 1113 3116 1747 
z
" id="DejaVuSans-70" transform="scale(0.015625)"/>
       <path d="M 4122 4306 
L 4122 3641 
Q 3803 3938 3442 4084 
Q 3081 4231 2675 4231 
Q 1875 4231 1450 3742 
Q 1025 3253 1025 2328 
Q 1025 1406 1450 917 
Q 1875 428 2675 428 
Q 3081 428 3442 575 
Q 3803 722 4122 1019 
L 4122 359 
Q 3791 134 3420 21 
Q 3050 -91 2638 -91 
Q 1578 -91 968 557 
Q 359 1206 359 2328 
Q 359 3453 968 4101 
Q 1578 4750 2638 4750 
Q 3056 4750 3426 4639 
Q 3797 4528 4122 4306 
z
" id="DejaVuSans-43" transform="scale(0.015625)"/>
       <path d="M 603 4863 
L 1178 4863 
L 1178 0 
L 603 0 
L 603 4863 
z
" id="DejaVuSans-6c" transform="scale(0.015625)"/>
       <path d="M 2834 3397 
L 2834 2853 
Q 2591 2978 2328 3040 
Q 2066 3103 1784 3103 
Q 1356 3103 1142 2972 
Q 928 2841 928 2578 
Q 928 2378 1081 2264 
Q 1234 2150 1697 2047 
L 1894 2003 
Q 2506 1872 2764 1633 
Q 3022 1394 3022 966 
Q 3022 478 2636 193 
Q 2250 -91 1575 -91 
Q 1294 -91 989 -36 
Q 684 19 347 128 
L 347 722 
Q 666 556 975 473 
Q 1284 391 1588 391 
Q 1994 391 2212 530 
Q 2431 669 2431 922 
Q 2431 1156 2273 1281 
Q 2116 1406 1581 1522 
L 1381 1569 
Q 847 1681 609 1914 
Q 372 2147 372 2553 
Q 372 3047 722 3315 
Q 1072 3584 1716 3584 
Q 2034 3584 2315 3537 
Q 2597 3491 2834 3397 
z
" id="DejaVuSans-73" transform="scale(0.015625)"/>
       <path d="M 544 1381 
L 544 3500 
L 1119 3500 
L 1119 1403 
Q 1119 906 1312 657 
Q 1506 409 1894 409 
Q 2359 409 2629 706 
Q 2900 1003 2900 1516 
L 2900 3500 
L 3475 3500 
L 3475 0 
L 2900 0 
L 2900 538 
Q 2691 219 2414 64 
Q 2138 -91 1772 -91 
Q 1169 -91 856 284 
Q 544 659 544 1381 
z
M 1991 3584 
L 1991 3584 
z
" id="DejaVuSans-75" transform="scale(0.015625)"/>
       <path d="M 3597 1894 
L 3597 1613 
L 953 1613 
Q 991 1019 1311 708 
Q 1631 397 2203 397 
Q 2534 397 2845 478 
Q 3156 559 3463 722 
L 3463 178 
Q 3153 47 2828 -22 
Q 2503 -91 2169 -91 
Q 1331 -91 842 396 
Q 353 884 353 1716 
Q 353 2575 817 3079 
Q 1281 3584 2069 3584 
Q 2775 3584 3186 3129 
Q 3597 2675 3597 1894 
z
M 3022 2063 
Q 3016 2534 2758 2815 
Q 2500 3097 2075 3097 
Q 1594 3097 1305 2825 
Q 1016 2553 972 2059 
L 3022 2063 
z
" id="DejaVuSans-65" transform="scale(0.015625)"/>
      </defs>
      <use xlink:href="#DejaVuSans-4c"/>
      <use x="53.962891" xlink:href="#DejaVuSans-6f"/>
      <use x="115.144531" xlink:href="#DejaVuSans-6f"/>
      <use x="176.326172" xlink:href="#DejaVuSans-70"/>
      <use x="239.802734" xlink:href="#DejaVuSans-20"/>
      <use x="271.589844" xlink:href="#DejaVuSans-43"/>
      <use x="341.414062" xlink:href="#DejaVuSans-6c"/>
      <use x="369.197266" xlink:href="#DejaVuSans-6f"/>
      <use x="430.378906" xlink:href="#DejaVuSans-73"/>
      <use x="482.478516" xlink:href="#DejaVuSans-75"/>
      <use x="545.857422" xlink:href="#DejaVuSans-72"/>
      <use x="584.720703" xlink:href="#DejaVuSans-65"/>
     </g>
    </g>
   </g>
  </g>
  <g id="text_15">
   <!-- Trajectory -->
   <g transform="translate(200.777813 16.030125)scale(0.12 -0.12)">
    <defs>
     <path d="M -19 4666 
L 3928 4666 
L 3928 4134 
L 2272 4134 
L 2272 0 
L 1638 0 
L 1638 4134 
L -19 4134 
L -19 4666 
z
" id="DejaVuSans-54" transform="scale(0.015625)"/>
     <path d="M 603 3500 
L 1178 3500 
L 1178 -63 
Q 1178 -731 923 -1031 
Q 669 -1331 103 -1331 
L -116 -1331 
L -116 -844 
L 38 -844 
Q 366 -844 484 -692 
Q 603 -541 603 -63 
L 603 3500 
z
M 603 4863 
L 1178 4863 
L 1178 4134 
L 603 4134 
L 603 4863 
z
" id="DejaVuSans-6a" transform="scale(0.015625)"/>
     <path d="M 3122 3366 
L 3122 2828 
Q 2878 2963 2633 3030 
Q 2388 3097 2138 3097 
Q 1578 3097 1268 2742 
Q 959 2388 959 1747 
Q 959 1106 1268 751 
Q 1578 397 2138 397 
Q 2388 397 2633 464 
Q 2878 531 3122 666 
L 3122 134 
Q 2881 22 2623 -34 
Q 2366 -91 2075 -91 
Q 1284 -91 818 406 
Q 353 903 353 1747 
Q 353 2603 823 3093 
Q 1294 3584 2113 3584 
Q 2378 3584 2631 3529 
Q 2884 3475 3122 3366 
z
" id="DejaVuSans-63" transform="scale(0.015625)"/>
     <path d="M 2059 -325 
Q 1816 -950 1584 -1140 
Q 1353 -1331 966 -1331 
L 506 -1331 
L 506 -850 
L 844 -850 
Q 1081 -850 1212 -737 
Q 1344 -625 1503 -206 
L 1606 56 
L 191 3500 
L 800 3500 
L 1894 763 
L 2988 3500 
L 3597 3500 
L 2059 -325 
z
" id="DejaVuSans-79" transform="scale(0.015625)"/>
    </defs>
    <use xlink:href="#DejaVuSans-54"/>
    <use x="46.333984" xlink:href="#DejaVuSans-72"/>
    <use x="87.447266" xlink:href="#DejaVuSans-61"/>
    <use x="148.726562" xlink:href="#DejaVuSans-6a"/>
    <use x="176.509766" xlink:href="#DejaVuSans-65"/>
    <use x="238.033203" xlink:href="#DejaVuSans-63"/>
    <use x="293.013672" xlink:href="#DejaVuSans-74"/>
    <use x="332.222656" xlink:href="#DejaVuSans-6f"/>
    <use x="393.404297" xlink:href="#DejaVuSans-72"/>
    <use x="434.517578" xlink:href="#DejaVuSans-79"/>
   </g>
  </g>
 </g>
 <defs>
  <clipPath id="p3dc0666002">
   <rect height="266.112" width="357.12" x="57.6" y="41.472"/>
  </clipPath>
 </defs>
</svg>
